<svg id="svg" version="1.1" width="400" height="401.195219123506" viewBox="0 0 400 401.195219123506" xmlns="http://www.w3.org/2000/svg" xmlns:xlink="http://www.w3.org/1999/xlink" ><g id="svgg"><path id="path0" d="M189.841 0.660 C 177.357 1.662,175.730 1.849,167.530 3.220 C 148.040 6.478,138.466 13.162,135.262 25.746 C 134.224 29.824,134.549 163.404,135.605 166.534 C 137.371 171.768,139.993 173.705,145.314 173.705 C 152.289 173.705,152.140 173.792,170.653 158.877 C 179.672 151.611,187.110 145.526,187.180 145.356 C 187.339 144.972,205.464 130.279,205.779 130.279 C 206.378 130.279,269.853 78.151,270.185 77.386 C 270.259 77.217,273.184 74.661,276.685 71.706 C 290.755 59.834,298.142 53.110,301.195 49.393 C 302.181 48.193,303.103 47.122,303.243 47.012 C 305.228 45.463,306.171 39.102,304.979 35.311 C 301.394 23.914,253.705 4.506,220.235 0.824 C 216.813 0.448,194.020 0.325,189.841 0.660 M222.469 2.784 C 246.594 5.881,273.875 15.197,294.524 27.387 C 305.212 33.697,306.654 41.627,298.663 50.140 C 294.621 54.446,269.897 75.721,251.755 90.504 C 249.694 92.183,247.560 93.952,247.012 94.434 C 246.464 94.916,242.358 98.293,237.888 101.938 C 233.418 105.583,228.129 109.923,226.135 111.583 C 220.577 116.208,181.183 148.089,158.608 166.233 C 148.262 174.547,139.661 174.277,137.275 165.563 C 136.231 161.749,136.038 29.651,137.072 25.921 C 140.729 12.722,151.235 6.658,175.697 3.627 C 192.872 1.498,210.047 1.189,222.469 2.784 M94.330 30.815 C 93.294 31.108,91.144 32.212,89.554 33.270 C 87.964 34.327,85.764 35.721,84.666 36.366 C 60.866 50.356,32.088 84.258,18.137 114.741 C -20.817 199.855,3.625 301.626,76.892 359.390 C 81.375 362.924,84.672 365.339,85.015 365.339 C 85.151 365.339,86.789 366.397,88.656 367.692 C 96.902 373.407,107.177 370.787,110.665 362.079 C 111.707 359.478,111.969 43.872,110.933 39.955 C 109.190 33.366,101.091 28.908,94.330 30.815 M102.036 32.918 C 104.678 33.745,106.943 35.862,108.359 38.829 L 109.566 41.357 109.464 200.659 L 109.363 359.960 108.411 362.067 C 105.772 367.907,98.137 370.842,92.751 368.088 C 79.942 361.539,54.757 338.177,41.400 320.453 C -19.776 239.280,-9.785 121.708,63.946 55.153 C 75.448 44.770,91.585 33.035,95.159 32.454 C 95.959 32.324,96.882 32.168,97.211 32.107 C 98.075 31.947,99.928 32.259,102.036 32.918 M328.685 61.282 C 324.003 62.848,325.817 61.479,299.546 83.267 C 287.789 93.018,271.130 106.823,262.526 113.944 C 253.921 121.066,246.239 127.539,245.453 128.330 C 243.790 130.002,181.771 181.275,181.411 181.275 C 180.734 181.275,169.449 191.231,168.099 193.019 C 163.147 199.578,164.727 205.937,172.776 211.847 C 174.163 212.866,175.299 213.816,175.299 213.958 C 175.299 214.253,181.519 219.522,181.868 219.522 C 182.208 219.522,254.490 279.903,256.453 281.827 C 257.373 282.729,262.752 287.287,268.406 291.957 C 274.059 296.627,287.702 307.945,298.723 317.108 C 315.826 331.329,319.531 334.227,324.022 336.898 L 329.283 340.027 333.665 340.026 C 342.665 340.025,347.464 336.867,358.367 323.769 C 390.245 285.474,405.029 229.137,397.380 175.100 C 391.150 131.083,375.521 95.480,351.403 70.369 C 343.111 61.734,335.927 58.861,328.685 61.282 M338.305 62.938 C 352.565 67.370,375.755 101.696,386.250 133.907 C 403.478 186.784,401.393 238.689,380.161 285.458 C 369.617 308.684,350.517 333.672,340.438 337.426 C 331.226 340.858,324.797 337.460,300.708 316.426 C 298.600 314.585,285.333 303.462,269.734 290.457 C 264.358 285.976,259.602 281.973,259.163 281.563 C 258.725 281.152,257.112 279.801,255.578 278.561 C 254.044 277.320,248.934 273.068,244.223 269.111 C 239.512 265.155,231.892 258.801,227.291 254.993 C 222.689 251.184,218.835 247.949,218.725 247.803 C 218.373 247.336,175.256 211.379,173.201 209.839 C 163.790 202.789,165.048 197.318,178.650 186.143 C 183.187 182.414,204.301 164.915,206.624 162.957 C 207.090 162.564,211.751 158.697,216.982 154.363 C 222.214 150.029,227.301 145.803,228.287 144.972 C 229.273 144.141,233.947 140.270,238.673 136.372 C 243.400 132.473,249.205 127.669,251.574 125.697 C 262.788 116.363,268.742 111.369,268.924 111.145 C 269.034 111.011,273.426 107.350,278.685 103.010 C 283.944 98.670,288.426 94.906,288.645 94.645 C 288.865 94.385,293.795 90.220,299.602 85.391 C 305.408 80.562,312.669 74.492,315.737 71.903 C 326.739 62.618,331.363 60.781,338.305 62.938 M140.141 228.987 C 137.954 230.251,136.633 232.022,135.598 235.081 C 134.690 237.763,134.196 370.481,135.076 375.100 C 136.546 382.808,142.048 389.569,150.000 393.440 C 165.499 400.983,208.877 403.778,233.466 398.818 C 263.074 392.845,299.757 376.737,304.427 367.656 C 306.189 364.229,305.640 357.124,303.438 354.880 C 303.170 354.606,302.207 353.393,301.298 352.184 C 299.544 349.851,295.867 346.364,287.450 339.053 C 284.602 336.579,281.629 333.900,280.844 333.100 C 279.288 331.513,261.508 316.584,245.418 303.355 C 227.932 288.977,207.430 272.320,205.976 271.308 C 203.873 269.846,198.126 265.113,197.110 264.007 C 196.233 263.052,170.957 242.640,159.960 234.005 C 152.048 227.793,145.206 226.061,140.141 228.987 M151.793 230.644 C 154.465 231.710,169.987 244.047,217.530 282.894 C 223.337 287.639,229.721 292.846,231.718 294.466 C 233.714 296.085,238.824 300.285,243.072 303.799 C 247.321 307.313,252.321 311.426,254.183 312.940 C 256.046 314.453,257.659 315.800,257.769 315.933 C 257.878 316.065,260.747 318.485,264.143 321.310 C 302.868 353.519,306.557 357.850,302.667 366.545 C 300.721 370.895,291.709 376.621,275.896 383.554 C 274.801 384.034,272.829 384.901,271.514 385.481 C 246.386 396.551,218.741 401.216,190.040 399.229 C 154.517 396.769,141.290 390.895,137.082 375.710 C 135.979 371.730,136.183 240.481,137.299 236.011 C 138.820 229.922,144.606 227.779,151.793 230.644 " stroke="none" fill="#f0eff3" fill-rule="evenodd"></path><path id="path1" d="M202.074 1.889 C 203.544 1.965,206.054 1.966,207.652 1.890 C 209.250 1.814,208.048 1.751,204.980 1.751 C 201.912 1.750,200.605 1.812,202.074 1.889 M191.140 2.274 C 191.636 2.369,192.353 2.365,192.734 2.266 C 193.115 2.166,192.709 2.088,191.833 2.093 C 190.956 2.097,190.645 2.179,191.140 2.274 M215.637 2.267 C 216.021 2.367,216.648 2.367,217.032 2.267 C 217.415 2.166,217.102 2.084,216.335 2.084 C 215.568 2.084,215.254 2.166,215.637 2.267 M255.378 10.558 C 256.145 10.853,257.042 11.095,257.371 11.095 C 257.699 11.095,257.341 10.853,256.574 10.558 C 255.807 10.262,254.910 10.021,254.582 10.021 C 254.253 10.021,254.612 10.262,255.378 10.558 M147.206 11.702 C 146.113 12.441,144.863 13.472,144.429 13.993 C 143.723 14.838,143.766 14.828,144.827 13.894 C 145.481 13.319,146.778 12.354,147.709 11.750 C 149.182 10.794,149.679 10.359,149.297 10.359 C 149.240 10.359,148.299 10.963,147.206 11.702 M259.761 11.885 C 260.090 12.088,260.807 12.374,261.355 12.521 C 262.047 12.706,262.168 12.674,261.753 12.418 C 261.424 12.215,260.707 11.929,260.159 11.782 C 259.467 11.597,259.346 11.628,259.761 11.885 M264.143 13.479 C 264.472 13.682,265.189 13.968,265.737 14.114 C 266.429 14.299,266.551 14.268,266.135 14.011 C 265.807 13.808,265.090 13.522,264.542 13.376 C 263.850 13.191,263.728 13.222,264.143 13.479 M273.705 17.331 C 274.253 17.644,274.880 17.900,275.100 17.900 C 275.319 17.900,275.050 17.644,274.502 17.331 C 273.954 17.018,273.327 16.761,273.108 16.761 C 272.888 16.761,273.157 17.018,273.705 17.331 M140.338 18.426 C 139.777 19.129,138.589 21.514,138.800 21.514 C 138.897 21.514,139.427 20.707,139.978 19.721 C 140.971 17.944,141.104 17.466,140.338 18.426 M276.494 18.526 C 277.042 18.839,277.669 19.095,277.888 19.095 C 278.108 19.095,277.839 18.839,277.291 18.526 C 276.743 18.213,276.116 17.957,275.896 17.957 C 275.677 17.957,275.946 18.213,276.494 18.526 M278.519 19.278 C 278.924 19.654,290.837 25.482,290.837 25.304 C 290.837 25.084,279.058 19.124,278.624 19.124 C 278.475 19.124,278.428 19.193,278.519 19.278 M292.430 26.474 C 292.430 26.583,292.968 26.951,293.625 27.291 C 294.283 27.631,294.821 27.819,294.821 27.710 C 294.821 27.600,294.283 27.232,293.625 26.892 C 292.968 26.552,292.430 26.364,292.430 26.474 M136.507 27.924 C 136.368 28.617,136.295 38.528,136.345 49.950 L 136.434 70.717 136.644 48.805 C 136.759 36.753,136.831 26.841,136.806 26.779 C 136.780 26.717,136.645 27.232,136.507 27.924 M295.219 28.067 C 295.219 28.177,295.757 28.545,296.414 28.884 C 297.072 29.224,297.610 29.413,297.610 29.303 C 297.610 29.194,297.072 28.826,296.414 28.486 C 295.757 28.146,295.219 27.958,295.219 28.067 M93.825 32.854 C 92.290 33.557,92.556 33.562,95.020 32.878 C 96.226 32.543,96.619 32.321,96.016 32.316 C 95.468 32.311,94.482 32.553,93.825 32.854 M104.781 34.388 C 104.781 34.456,105.364 35.039,106.076 35.682 L 107.371 36.853 106.200 35.558 C 105.110 34.351,104.781 34.080,104.781 34.388 M82.734 39.863 C 81.493 40.751,80.478 41.573,80.478 41.689 C 80.478 41.876,84.046 39.441,85.040 38.576 C 86.058 37.691,84.742 38.425,82.734 39.863 M109.361 200.398 C 109.361 285.747,109.406 320.662,109.462 277.988 C 109.518 235.314,109.518 165.483,109.462 122.809 C 109.406 80.134,109.361 115.050,109.361 200.398 M296.813 51.594 C 295.180 53.237,293.934 54.582,294.044 54.582 C 294.153 54.582,295.579 53.237,297.211 51.594 C 298.844 49.950,300.090 48.606,299.980 48.606 C 299.870 48.606,298.445 49.950,296.813 51.594 M62.336 56.673 L 60.359 58.765 62.450 56.788 C 64.394 54.951,64.725 54.582,64.427 54.582 C 64.364 54.582,63.423 55.523,62.336 56.673 M291.416 56.673 L 289.841 58.367 291.534 56.792 C 293.109 55.327,293.410 54.980,293.109 54.980 C 293.044 54.980,292.282 55.742,291.416 56.673 M287.830 59.861 L 286.255 61.554 287.948 59.979 C 289.523 58.514,289.825 58.167,289.523 58.167 C 289.458 58.167,288.696 58.929,287.830 59.861 M328.906 62.993 C 325.629 64.119,322.253 66.404,315.737 71.903 C 312.669 74.492,305.408 80.562,299.602 85.391 C 293.795 90.220,288.865 94.385,288.645 94.645 C 288.426 94.906,283.944 98.670,278.685 103.010 C 273.426 107.350,269.034 111.011,268.924 111.145 C 268.742 111.369,262.788 116.363,251.574 125.697 C 249.205 127.669,243.400 132.473,238.673 136.372 C 233.947 140.270,229.273 144.141,228.287 144.972 C 227.301 145.803,222.214 150.029,216.982 154.363 C 211.751 158.697,207.090 162.564,206.624 162.957 C 204.301 164.915,183.187 182.414,178.650 186.143 C 165.048 197.318,163.790 202.789,173.201 209.839 C 175.256 211.379,218.373 247.336,218.725 247.803 C 218.835 247.949,222.689 251.184,227.291 254.993 C 231.892 258.801,239.512 265.155,244.223 269.111 C 248.934 273.068,254.044 277.320,255.578 278.561 C 257.112 279.801,258.725 281.152,259.163 281.563 C 259.602 281.973,264.358 285.976,269.734 290.457 C 285.333 303.462,298.600 314.585,300.708 316.426 C 330.499 342.439,336.512 344.058,350.423 329.812 C 383.832 295.598,402.139 238.997,396.984 185.857 C 392.350 138.093,375.348 97.001,349.410 70.879 C 341.427 62.839,335.727 60.647,328.906 62.993 M52.988 65.936 C 51.356 67.580,50.110 68.924,50.219 68.924 C 50.329 68.924,51.754 67.580,53.386 65.936 C 55.019 64.293,56.265 62.948,56.155 62.948 C 56.046 62.948,54.621 64.293,52.988 65.936 M36.151 86.753 C 34.627 88.863,31.790 93.103,31.286 94.024 C 30.500 95.461,31.942 93.534,34.789 89.343 C 37.852 84.835,38.697 83.229,36.151 86.753 M244.422 96.308 L 242.032 98.516 244.422 96.591 C 245.737 95.532,246.887 94.611,246.979 94.544 C 247.070 94.477,247.070 94.350,246.979 94.262 C 246.887 94.173,245.737 95.094,244.422 96.308 M239.641 100.248 L 237.649 102.073 239.741 100.402 C 241.552 98.955,242.126 98.382,241.733 98.415 C 241.678 98.419,240.737 99.244,239.641 100.248 M26.295 102.390 C 25.848 103.267,25.571 103.984,25.681 103.984 C 25.791 103.984,26.246 103.267,26.693 102.390 C 27.140 101.514,27.417 100.797,27.307 100.797 C 27.197 100.797,26.742 101.514,26.295 102.390 M235.259 103.833 L 233.267 105.658 235.359 103.987 C 237.170 102.540,237.744 101.968,237.351 102.000 C 237.296 102.005,236.355 102.830,235.259 103.833 M23.506 107.570 C 22.625 109.323,21.993 110.757,22.103 110.757 C 22.212 110.757,23.023 109.323,23.904 107.570 C 24.786 105.817,25.417 104.382,25.308 104.382 C 25.198 104.382,24.387 105.817,23.506 107.570 M231.076 107.225 L 229.283 108.849 230.971 107.583 C 232.438 106.481,233.381 105.552,232.992 105.590 C 232.924 105.596,232.062 106.332,231.076 107.225 M226.693 110.796 L 224.502 112.819 226.793 110.943 C 228.803 109.296,229.351 108.753,228.984 108.769 C 228.929 108.772,227.898 109.684,226.693 110.796 M20.988 112.568 C 20.052 114.531,20.183 114.865,21.162 113.010 C 21.606 112.168,21.899 111.408,21.813 111.322 C 21.727 111.236,21.356 111.797,20.988 112.568 M17.196 120.933 C 16.529 122.398,16.656 122.711,17.378 121.379 C 17.715 120.757,17.916 120.174,17.825 120.083 C 17.734 119.992,17.451 120.374,17.196 120.933 M14.387 127.933 C 14.141 128.637,14.010 129.283,14.096 129.368 C 14.181 129.453,14.451 128.947,14.697 128.243 C 14.942 127.538,15.073 126.893,14.988 126.807 C 14.903 126.722,14.632 127.229,14.387 127.933 M12.417 133.446 C 12.184 134.114,12.078 134.661,12.182 134.661 C 12.451 134.661,13.203 132.592,13.005 132.395 C 12.915 132.304,12.650 132.777,12.417 133.446 M136.824 155.378 C 136.824 160.309,136.881 162.326,136.951 159.861 C 137.021 157.395,137.021 153.362,136.951 150.896 C 136.881 148.431,136.824 150.448,136.824 155.378 M154.787 168.917 C 154.394 169.351,153.157 170.059,152.036 170.490 C 150.916 170.921,150.269 171.279,150.598 171.285 C 151.561 171.305,154.318 169.906,155.141 168.981 C 155.559 168.511,155.811 168.127,155.701 168.127 C 155.592 168.127,155.180 168.483,154.787 168.917 M139.241 169.658 C 139.676 170.172,140.391 170.776,140.832 171.002 C 141.678 171.435,141.555 171.302,139.644 169.715 C 138.494 168.760,138.480 168.758,139.241 169.658 M144.115 172.001 C 144.822 172.089,146.077 172.090,146.903 172.004 C 147.730 171.918,147.151 171.846,145.618 171.844 C 144.084 171.842,143.407 171.913,144.115 172.001 M1.694 187.849 C 1.699 188.725,1.780 189.037,1.875 188.541 C 1.971 188.046,1.967 187.328,1.867 186.948 C 1.768 186.567,1.690 186.972,1.694 187.849 M1.337 199.004 C 1.335 200.976,1.403 201.833,1.486 200.908 C 1.570 199.984,1.571 198.370,1.489 197.323 C 1.406 196.275,1.338 197.032,1.337 199.004 M1.686 211.952 C 1.686 212.719,1.768 213.033,1.868 212.649 C 1.968 212.266,1.968 211.638,1.868 211.255 C 1.768 210.872,1.686 211.185,1.686 211.952 M2.084 217.530 C 2.084 218.297,2.166 218.611,2.267 218.227 C 2.367 217.844,2.367 217.216,2.267 216.833 C 2.166 216.449,2.084 216.763,2.084 217.530 M141.633 230.044 C 140.976 230.337,139.990 231.078,139.442 231.692 C 138.477 232.774,138.496 232.770,140.040 231.558 C 140.916 230.870,142.351 230.139,143.227 229.935 C 144.325 229.678,144.511 229.555,143.825 229.538 C 143.277 229.524,142.291 229.752,141.633 230.044 M146.519 229.764 C 147.014 229.859,147.731 229.856,148.112 229.756 C 148.493 229.656,148.088 229.578,147.211 229.583 C 146.335 229.587,146.023 229.669,146.519 229.764 M150.199 230.478 C 152.018 231.179,152.734 231.168,151.195 230.464 C 150.538 230.163,149.731 229.922,149.402 229.929 C 149.074 229.936,149.432 230.183,150.199 230.478 M154.980 232.666 C 156.581 234.109,158.566 235.592,158.566 235.345 C 158.566 235.253,157.445 234.330,156.076 233.293 C 154.706 232.257,154.213 231.975,154.980 232.666 M136.827 247.410 C 136.827 252.998,136.883 255.284,136.951 252.490 C 137.020 249.696,137.020 245.125,136.951 242.331 C 136.883 239.537,136.827 241.823,136.827 247.410 M17.165 278.685 C 17.165 278.904,17.508 279.711,17.928 280.478 C 18.348 281.245,18.692 281.693,18.692 281.474 C 18.692 281.255,18.348 280.448,17.928 279.681 C 17.508 278.914,17.165 278.466,17.165 278.685 M18.753 282.271 C 18.753 282.490,19.010 283.118,19.323 283.665 C 19.636 284.213,19.892 284.482,19.892 284.263 C 19.892 284.044,19.636 283.416,19.323 282.869 C 19.010 282.321,18.753 282.052,18.753 282.271 M21.514 288.192 C 21.514 288.624,23.892 293.227,24.115 293.227 C 24.225 293.227,23.753 292.107,23.066 290.737 C 21.765 288.141,21.514 287.730,21.514 288.192 M228.685 292.150 C 228.685 292.251,229.528 293.025,230.559 293.870 C 231.590 294.714,232.304 295.197,232.147 294.943 C 231.812 294.401,228.685 291.878,228.685 292.150 M25.498 296.016 C 25.945 296.892,26.401 297.610,26.510 297.610 C 26.620 297.610,26.344 296.892,25.896 296.016 C 25.449 295.139,24.994 294.422,24.884 294.422 C 24.775 294.422,25.051 295.139,25.498 296.016 M235.019 297.331 C 235.663 298.142,239.442 301.356,239.442 301.093 C 239.442 300.996,238.322 299.952,236.952 298.773 C 235.583 297.593,234.713 296.945,235.019 297.331 M239.937 301.428 C 240.082 301.661,241.591 303.003,243.290 304.409 C 244.990 305.815,246.263 306.774,246.119 306.541 C 245.974 306.307,244.465 304.965,242.765 303.559 C 241.065 302.153,239.793 301.194,239.937 301.428 M31.683 306.600 C 32.053 307.272,32.710 308.258,33.144 308.791 L 33.931 309.761 33.258 308.539 C 32.887 307.868,32.230 306.882,31.797 306.348 L 31.009 305.378 31.683 306.600 M246.710 307.005 C 246.854 307.239,248.363 308.580,250.063 309.987 C 251.763 311.393,253.036 312.352,252.892 312.118 C 252.747 311.885,251.238 310.543,249.538 309.137 C 247.838 307.731,246.566 306.772,246.710 307.005 M36.429 313.677 C 37.043 314.481,37.625 315.139,37.724 315.139 C 38.001 315.139,36.276 312.809,35.766 312.494 C 35.517 312.340,35.816 312.872,36.429 313.677 M253.386 312.468 C 253.386 312.570,254.230 313.344,255.260 314.189 C 256.291 315.033,257.006 315.516,256.848 315.262 C 256.514 314.720,253.386 312.197,253.386 312.468 M46.614 327.216 C 46.614 327.285,47.196 327.868,47.908 328.511 L 49.203 329.681 48.033 328.386 C 46.942 327.179,46.614 326.909,46.614 327.216 M136.441 350.996 C 136.441 363.376,136.492 368.441,136.554 362.251 C 136.615 356.061,136.615 345.931,136.554 339.741 C 136.492 333.551,136.441 338.616,136.441 350.996 M49.004 330.005 C 49.004 330.074,49.587 330.656,50.299 331.300 L 51.594 332.470 50.423 331.175 C 49.333 329.968,49.004 329.697,49.004 330.005 M52.590 334.064 C 53.333 334.831,54.031 335.458,54.140 335.458 C 54.250 335.458,53.731 334.831,52.988 334.064 C 52.245 333.297,51.547 332.669,51.437 332.669 C 51.328 332.669,51.846 333.297,52.590 334.064 M57.570 339.442 C 59.092 340.976,60.427 342.231,60.536 342.231 C 60.646 342.231,59.490 340.976,57.968 339.442 C 56.446 337.908,55.111 336.653,55.001 336.653 C 54.892 336.653,56.048 337.908,57.570 339.442 M294.821 348.008 C 295.564 348.775,296.262 349.402,296.371 349.402 C 296.481 349.402,295.962 348.775,295.219 348.008 C 294.476 347.241,293.778 346.614,293.668 346.614 C 293.559 346.614,294.077 347.241,294.821 348.008 M69.721 350.797 C 70.464 351.564,71.162 352.191,71.272 352.191 C 71.381 352.191,70.863 351.564,70.120 350.797 C 69.376 350.030,68.678 349.402,68.569 349.402 C 68.459 349.402,68.978 350.030,69.721 350.797 M298.406 351.594 C 299.150 352.361,299.848 352.988,299.957 352.988 C 300.067 352.988,299.548 352.361,298.805 351.594 C 298.061 350.827,297.364 350.199,297.254 350.199 C 297.144 350.199,297.663 350.827,298.406 351.594 M91.180 367.307 C 91.697 367.758,92.309 368.127,92.541 368.127 C 93.031 368.127,93.007 368.108,91.434 367.186 L 90.239 366.487 91.180 367.307 M103.004 367.410 C 102.574 367.659,101.498 368.090,100.613 368.367 C 99.728 368.644,99.363 368.879,99.801 368.889 C 100.646 368.908,103.984 367.521,103.984 367.151 C 103.984 366.862,103.919 366.879,103.004 367.410 M93.625 368.520 C 93.954 368.736,94.656 368.915,95.186 368.918 C 96.465 368.926,96.141 368.700,94.422 368.384 C 93.441 368.204,93.205 368.245,93.625 368.520 M96.912 369.199 C 97.296 369.299,97.923 369.299,98.307 369.199 C 98.690 369.099,98.376 369.017,97.610 369.017 C 96.843 369.017,96.529 369.099,96.912 369.199 M137.668 377.689 C 138.563 380.976,143.020 386.968,146.313 389.313 C 146.958 389.772,145.968 388.644,144.115 386.807 C 141.430 384.146,140.403 382.777,139.070 380.080 C 138.149 378.217,137.518 377.141,137.668 377.689 M276.096 383.068 C 275.548 383.381,275.279 383.637,275.498 383.637 C 275.717 383.637,276.345 383.381,276.892 383.068 C 277.440 382.755,277.709 382.498,277.490 382.498 C 277.271 382.498,276.643 382.755,276.096 383.068 M267.928 386.667 C 266.932 387.147,266.899 387.203,267.729 387.000 C 268.858 386.724,270.127 386.077,269.522 386.086 C 269.303 386.089,268.586 386.351,267.928 386.667 M260.359 389.456 C 259.362 389.936,259.329 389.991,260.159 389.788 C 261.288 389.513,262.557 388.866,261.952 388.875 C 261.733 388.878,261.016 389.140,260.359 389.456 M255.378 391.036 C 254.612 391.331,254.253 391.573,254.582 391.573 C 254.910 391.573,255.807 391.331,256.574 391.036 C 257.341 390.741,257.699 390.499,257.371 390.499 C 257.042 390.499,256.145 390.741,255.378 391.036 M152.191 392.629 C 152.739 392.943,153.367 393.199,153.586 393.199 C 153.805 393.199,153.536 392.943,152.988 392.629 C 152.440 392.316,151.813 392.060,151.594 392.060 C 151.375 392.060,151.643 392.316,152.191 392.629 M250.797 392.430 C 250.295 392.646,250.221 392.773,250.598 392.773 C 250.926 392.773,251.554 392.619,251.992 392.430 C 252.494 392.214,252.568 392.088,252.191 392.088 C 251.863 392.088,251.235 392.242,250.797 392.430 M248.008 393.227 C 247.506 393.443,247.432 393.569,247.809 393.569 C 248.137 393.569,248.765 393.415,249.203 393.227 C 249.705 393.011,249.779 392.885,249.402 392.885 C 249.074 392.885,248.446 393.039,248.008 393.227 M245.219 394.024 C 244.717 394.240,244.643 394.366,245.020 394.366 C 245.349 394.366,245.976 394.212,246.414 394.024 C 246.917 393.808,246.990 393.682,246.614 393.682 C 246.285 393.682,245.657 393.836,245.219 394.024 M159.732 395.055 C 160.703 395.359,162.137 395.698,162.920 395.807 C 163.702 395.917,163.088 395.654,161.554 395.224 C 158.395 394.337,157.045 394.211,159.732 395.055 M235.458 396.414 C 234.669 396.667,234.628 396.733,235.259 396.733 C 235.697 396.733,236.504 396.590,237.052 396.414 C 237.840 396.162,237.882 396.095,237.251 396.095 C 236.813 396.095,236.006 396.239,235.458 396.414 M169.422 397.087 C 169.806 397.188,170.433 397.188,170.817 397.087 C 171.200 396.987,170.886 396.905,170.120 396.905 C 169.353 396.905,169.039 396.987,169.422 397.087 M172.211 397.486 C 172.595 397.586,173.222 397.586,173.606 397.486 C 173.989 397.386,173.675 397.304,172.908 397.304 C 172.141 397.304,171.828 397.386,172.211 397.486 M175.398 397.884 C 175.782 397.984,176.409 397.984,176.793 397.884 C 177.176 397.784,176.863 397.702,176.096 397.702 C 175.329 397.702,175.015 397.784,175.398 397.884 M178.790 398.290 C 179.285 398.385,180.002 398.381,180.383 398.282 C 180.764 398.182,180.359 398.104,179.482 398.108 C 178.606 398.113,178.294 398.194,178.790 398.290 M182.974 398.692 C 183.579 398.784,184.476 398.781,184.966 398.687 C 185.456 398.592,184.960 398.517,183.865 398.520 C 182.769 398.523,182.368 398.601,182.974 398.692 M187.939 399.092 C 188.647 399.180,189.902 399.182,190.728 399.096 C 191.555 399.009,190.976 398.937,189.442 398.936 C 187.908 398.934,187.232 399.004,187.939 399.092 M219.422 399.086 C 219.915 399.181,220.722 399.181,221.215 399.086 C 221.708 398.991,221.305 398.913,220.319 398.913 C 219.333 398.913,218.929 398.991,219.422 399.086 M195.120 399.497 C 196.270 399.577,198.152 399.577,199.303 399.497 C 200.453 399.416,199.512 399.351,197.211 399.351 C 194.910 399.351,193.969 399.416,195.120 399.497 M213.836 399.491 C 214.543 399.579,215.798 399.580,216.625 399.494 C 217.451 399.408,216.873 399.336,215.339 399.334 C 213.805 399.332,213.128 399.403,213.836 399.491 M205.080 399.893 C 206.011 399.977,207.535 399.977,208.466 399.893 C 209.397 399.809,208.635 399.741,206.773 399.741 C 204.910 399.741,204.148 399.809,205.080 399.893 " stroke="none" fill="#64349c" fill-rule="evenodd"></path><path id="path2" d="M191.833 2.225 C 190.956 2.305,187.819 2.570,184.861 2.814 C 155.095 5.271,142.605 11.003,137.742 24.436 L 136.853 26.892 136.750 82.869 C 136.629 149.183,136.879 164.640,138.117 167.374 C 139.976 171.476,144.532 172.786,150.564 170.954 C 153.738 169.990,171.361 156.145,215.538 119.912 C 220.906 115.509,228.436 109.347,232.271 106.220 C 236.106 103.092,242.582 97.768,246.664 94.390 C 250.745 91.011,255.942 86.723,258.212 84.861 C 261.779 81.935,269.425 75.546,281.471 65.424 C 301.872 48.284,305.740 42.662,302.434 34.958 C 299.913 29.086,276.827 17.115,255.378 10.557 C 253.516 9.988,251.633 9.353,251.195 9.146 C 248.261 7.761,234.158 4.592,224.502 3.147 C 219.205 2.355,197.222 1.734,191.833 2.225 M94.921 32.875 C 91.393 33.845,78.808 42.665,68.535 51.367 C 44.577 71.663,24.089 101.275,13.938 130.279 C 13.210 132.361,12.481 134.243,12.318 134.462 C 9.231 138.626,3.187 169.082,1.961 186.653 C 0.240 211.321,5.429 250.750,12.342 265.538 C 12.547 265.976,13.592 268.665,14.663 271.514 C 20.138 286.067,28.830 302.701,36.608 313.510 C 55.091 339.195,85.472 367.311,96.293 368.747 C 101.485 369.435,107.372 365.589,108.760 360.603 C 109.628 357.484,109.289 41.237,108.416 39.262 C 106.143 34.123,100.351 31.382,94.921 32.875 M143.118 229.960 C 140.711 230.482,138.518 232.684,137.640 235.458 C 136.746 238.282,136.175 370.479,137.040 374.480 C 140.739 391.594,156.793 397.781,201.793 399.433 C 229.408 400.446,263.860 391.129,292.715 374.843 C 307.029 366.764,307.321 359.534,293.835 347.044 C 287.467 341.146,265.614 322.638,248.606 308.740 C 244.771 305.606,240.122 301.775,238.274 300.226 C 236.426 298.678,231.854 294.921,228.114 291.879 C 224.375 288.836,219.343 284.693,216.932 282.671 C 213.551 279.835,189.915 260.630,180.478 253.052 C 173.426 247.389,157.769 234.883,155.911 233.430 C 152.327 230.627,146.866 229.145,143.118 229.960 " stroke="none" fill="#343464" fill-rule="evenodd"></path></g></svg>