<?xml version="1.0" encoding="utf-8"?>
<!-- Generator: Adobe Illustrator 23.0.1, SVG Export Plug-In . SVG Version: 6.00 Build 0)  -->
<svg version="1.1" id="Layer_1" xmlns="http://www.w3.org/2000/svg" xmlns:xlink="http://www.w3.org/1999/xlink" x="0px" y="0px"
	 viewBox="0 0 43.1 16.1" style="enable-background:new 0 0 43.1 16.1;" xml:space="preserve">
<style type="text/css">
	.st0{fill:none;}
	.st1{fill:#FFFFFF;stroke:#000000;stroke-miterlimit:10;}
	.st2{fill-rule:evenodd;clip-rule:evenodd;fill:url(#SVGID_1_);}
	.st3{fill-rule:evenodd;clip-rule:evenodd;fill:url(#SVGID_2_);}
	.st4{fill-rule:evenodd;clip-rule:evenodd;fill:url(#SVGID_3_);}
	.st5{fill:#333333;}
	.st6{font-family:'Verdana';}
	.st7{font-size:11.3384px;}
</style>
<rect x="18.1" y="2.4" class="st0" width="25" height="12.6"/>
<path class="st1" d="M25.1-43.6L25.1-43.6L25.1-43.6z"/>
<g>
	
		<radialGradient id="SVGID_1_" cx="9.07" cy="1070.0804" r="7.5" gradientTransform="matrix(1 0 0 1 0 -1062)" gradientUnits="userSpaceOnUse">
		<stop  offset="0" style="stop-color:#FFFFFF"/>
		<stop  offset="1" style="stop-color:#000000"/>
	</radialGradient>
	<path class="st2" d="M8.7,0.5c-0.5,0-0.5,0-0.8,0.1C7.1,0.8,6.8,1,6.6,1.5c0,0.2,0,5.2,0,5.3C6.7,7,6.8,7,7,7c0.3,0,0.3,0,0.9-0.6
		c0.3-0.3,0.6-0.5,0.6-0.5l0.7-0.6l2.4-2c0,0,0.1-0.1,0.2-0.2c0.5-0.4,0.8-0.7,0.9-0.8l0.1-0.1C13,2.2,13.1,2,13,1.8
		c-0.1-0.4-1.9-1.1-3.2-1.2C9.7,0.5,8.8,0.5,8.7,0.5L8.7,0.5z M9.9,0.6c0.9,0.1,1.9,0.5,2.7,0.9c0.4,0.3,0.5,0.6,0.2,0.9
		c-0.2,0.2-1.1,1-1.8,1.5C10.9,4,10.9,4,10.8,4.1c-0.1,0.1-0.1,0.1-0.3,0.2c-0.2,0.2-0.4,0.3-0.4,0.4c-0.2,0.2-1.7,1.4-2.5,2
		C7.2,7,6.9,7,6.8,6.7c0-0.1,0-5.1,0-5.2C6.9,1,7.3,0.8,8.2,0.7C8.8,0.6,9.4,0.6,9.9,0.6 M5.1,1.7c0,0-0.1,0.1-0.2,0.1
		S4.8,1.9,4.7,1.9C3.8,2.4,2.8,3.7,2.2,4.8C0.7,8,1.7,11.8,4.4,14c0.2,0.1,0.3,0.2,0.3,0.2s0.1,0,0.1,0.1c0.3,0.2,0.7,0.1,0.8-0.2
		c0-0.1,0-11.9,0-12.1C5.7,1.8,5.4,1.6,5.1,1.7 M5.4,1.8c0.1,0,0.2,0.1,0.2,0.2v0.1v6v6v0.1c-0.1,0.1-0.4,0.2-0.6,0.1
		c-0.5-0.2-1.4-1.1-1.9-1.8c-2.3-3-1.9-7.4,0.8-9.9c0.4-0.4,1-0.8,1.2-0.9h0.1C5.2,1.7,5.3,1.7,5.4,1.8 M13.9,2.8
		c-0.2,0.1-0.1,0-1.1,0.8c-0.4,0.4-1.1,0.9-1.4,1.1c-0.3,0.3-0.6,0.5-0.6,0.5c-0.1,0.1-2.4,2-2.4,2L7.9,7.6C7.7,8,7.7,8.2,8.1,8.5
		c0.1,0,0.1,0.1,0.1,0.1l0.2,0.2c0,0,2.7,2.3,2.8,2.3c0,0,0.2,0.2,0.4,0.4s0.7,0.6,1.1,0.9c0.6,0.5,0.8,0.6,1,0.7l0.2,0.1h0.2
		c0.3,0,0.5-0.1,0.9-0.6c1.2-1.4,1.8-3.5,1.5-5.6c-0.2-1.6-0.8-3-1.7-3.9C14.4,2.8,14.2,2.7,13.9,2.8L13.9,2.8z M14.3,2.9
		c0.5,0.2,1.4,1.4,1.8,2.7c0.6,2,0.6,3.9-0.2,5.7c-0.4,0.9-1.1,1.8-1.5,1.9c-0.3,0.1-0.6,0-1.5-0.8c-0.1-0.1-0.6-0.5-1.2-1
		c-0.2-0.2-0.4-0.3-0.4-0.3L11.2,11c-0.1,0-0.2-0.2-0.4-0.4c-0.2-0.1-0.5-0.4-0.6-0.5C9.9,9.9,9.8,9.8,9.8,9.8S8.2,8.4,8.1,8.4
		C7.7,8.1,7.8,7.9,8.3,7.5c0.2-0.1,1-0.8,1.1-0.9c0,0,0.2-0.2,0.4-0.3C10,6.1,10.2,6,10.2,5.9c0,0,0.2-0.2,0.4-0.3
		c0.1-0.1,0.3-0.3,0.4-0.4c0.4-0.3,0.6-0.5,0.7-0.5c0,0,0.2-0.1,0.4-0.3c0.2-0.2,0.4-0.3,0.4-0.3s0.2-0.2,0.4-0.3
		c0.2-0.2,0.5-0.4,0.6-0.5C13.8,2.9,14,2.8,14.3,2.9 M6.8,9.1c-0.1,0-0.1,0.1-0.2,0.2c0,0.1-0.1,5.1,0,5.2c0.1,0.3,0.3,0.5,0.6,0.7
		c0.6,0.3,2.2,0.4,3.1,0.2c1.1-0.2,2.5-0.8,2.7-1.2c0.1-0.1,0-0.4,0-0.5c0,0,0-0.1-0.1-0.1c-0.1-0.1-0.2-0.2-0.5-0.5
		c-0.1-0.1-0.2-0.2-0.2-0.2c-0.1-0.1-0.7-0.6-1.3-1.1c-0.7-0.5-1.4-1.2-1.5-1.2c-0.2,0-0.4-0.2-0.4-0.2S8,9.6,7.6,9.3
		C7.3,9.1,7,9,6.8,9.1 M7.3,9.2c0.1,0,0.7,0.5,2.5,2c0.2,0.2,0.5,0.4,0.5,0.4c0.1,0.1,0.3,0.2,0.4,0.4c0.2,0.1,0.3,0.3,0.4,0.3
		c0.1,0.1,0.1,0.1,0.1,0.1s0.1,0.1,0.2,0.2c1.5,1.2,1.6,1.4,1.4,1.7c-0.1,0.2-0.4,0.4-1,0.6c0,0-0.1,0-0.2,0.1
		c-0.9,0.4-2,0.6-3.1,0.5c-1.3-0.1-1.8-0.3-2-0.9c0-0.1,0-5.1,0-5.2C6.8,9.1,7,9,7.3,9.2"/>
	
		<radialGradient id="SVGID_2_" cx="9.0716" cy="1070.0873" r="7.45" gradientTransform="matrix(1 0 0 1 0 -1062)" gradientUnits="userSpaceOnUse">
		<stop  offset="0" style="stop-color:#FFFFFF"/>
		<stop  offset="1" style="stop-color:#000000"/>
	</radialGradient>
	<path class="st3" d="M9.1,0.6c0.1,0,0.2,0,0.2,0S9.3,0.6,9.1,0.6L9.1,0.6 M8.7,0.6C8.8,0.6,8.8,0.6,8.7,0.6
		C8.8,0.6,8.8,0.6,8.7,0.6L8.7,0.6 M9.7,0.6L9.7,0.6L9.7,0.6C9.7,0.6,9.6,0.6,9.7,0.6L9.7,0.6z M11.1,0.9
		C11.2,0.9,11.2,0.9,11.1,0.9C11.2,0.9,11.2,0.9,11.1,0.9C11.2,0.9,11.1,0.9,11.1,0.9L11.1,0.9 M7.1,1L7,1.1C7,1.1,7,1.1,7.1,1
		C7,1,7.1,1,7.1,1C7.2,0.9,7.2,0.9,7.1,1C7.2,0.9,7.1,0.9,7.1,1L7.1,1z M11.3,1C11.3,1,11.4,1,11.3,1C11.4,1,11.4,1,11.3,1
		C11.4,1,11.4,1,11.3,1L11.3,1L11.3,1z M11.5,1L11.5,1C11.6,1.1,11.6,1.1,11.5,1L11.5,1L11.5,1L11.5,1z M11.8,1.2
		C11.9,1.2,11.9,1.2,11.8,1.2C11.9,1.2,11.9,1.2,11.8,1.2L11.8,1.2L11.8,1.2 M6.8,1.2L6.7,1.3C6.8,1.3,6.8,1.3,6.8,1.2
		C6.9,1.2,6.9,1.2,6.8,1.2 M11.9,1.2C12,1.2,12,1.2,11.9,1.2C12,1.2,12,1.2,11.9,1.2C12,1.2,11.9,1.2,11.9,1.2L11.9,1.2 M12,1.2
		l0.5,0.2C12.5,1.5,12,1.2,12,1.2L12,1.2 M12.5,1.5C12.5,1.5,12.6,1.5,12.5,1.5C12.6,1.6,12.6,1.6,12.5,1.5
		C12.6,1.6,12.6,1.5,12.5,1.5C12.6,1.5,12.5,1.5,12.5,1.5L12.5,1.5z M6.7,1.6c0,0,0,0.4,0,0.8v0.8V2.4C6.7,1.9,6.7,1.5,6.7,1.6
		C6.7,1.5,6.7,1.5,6.7,1.6 M12.6,1.6C12.6,1.6,12.7,1.6,12.6,1.6C12.7,1.6,12.7,1.6,12.6,1.6C12.7,1.6,12.7,1.6,12.6,1.6
		C12.7,1.6,12.6,1.6,12.6,1.6L12.6,1.6z M5.1,1.8C5,1.8,5,1.8,5.1,1.8C5.2,1.7,5.2,1.7,5.1,1.8C5.1,1.7,5.1,1.7,5.1,1.8 M5.5,1.8
		L5.5,1.8L5.5,1.8L5.5,1.8L5.5,1.8 M4.7,2C4.6,2.1,4.6,2.1,4.7,2C4.6,2.1,4.7,2,4.7,2C4.8,1.9,4.7,2,4.7,2L4.7,2z M5.7,8
		c0,3.2,0,4.5,0,2.9s0-4.2,0-5.8S5.7,4.8,5.7,8L5.7,8z M12.7,2.5c-0.1,0.1-0.1,0.1-0.1,0.1C12.6,2.6,12.7,2.5,12.7,2.5
		c0.1-0.1,0.1-0.1,0.1-0.1C12.8,2.3,12.8,2.4,12.7,2.5L12.7,2.5z M3.9,2.6L3.9,2.6L3.9,2.6C4,2.6,4,2.6,3.9,2.6
		C4,2.6,3.9,2.6,3.9,2.6 M12.5,2.6L12.5,2.6L12.5,2.6C12.6,2.6,12.6,2.6,12.5,2.6C12.6,2.6,12.5,2.6,12.5,2.6L12.5,2.6z M12.4,2.8
		L12.4,2.8L12.4,2.8C12.4,2.7,12.4,2.7,12.4,2.8C12.4,2.7,12.4,2.7,12.4,2.8L12.4,2.8z M13.9,2.9c-0.1,0-0.3,0.1-0.5,0.3
		c-0.1,0.1-0.4,0.3-0.6,0.5C12.6,3.9,12.4,4,12.4,4S12.2,4.2,12,4.3c-0.2,0.2-0.4,0.3-0.4,0.3s-0.2,0.2-0.7,0.5
		c0,0.2-0.2,0.4-0.4,0.5c-0.2,0.2-0.3,0.3-0.4,0.4c0,0-0.2,0.2-0.4,0.4C9.5,6.5,9.3,6.6,9.3,6.6c-0.1,0.1-0.9,0.8-1,0.9
		C7.8,7.9,7.7,8.1,8.1,8.4l1.7,1.4c0,0,0.2,0.1,0.3,0.3c0.2,0.1,0.5,0.4,0.6,0.5c0.2,0.1,0.4,0.3,0.4,0.4c0.1,0,0.1,0.1,0.1,0.1
		s0.2,0.2,0.4,0.3c0.6,0.5,1.1,0.9,1.2,1c1.1,1,1.3,1,1.9,0.5c1.3-1.3,1.9-3.4,1.7-5.4c-0.2-1.8-0.8-3.3-1.8-4.3
		C14.4,2.9,14.2,2.8,13.9,2.9L13.9,2.9z M3.6,3C3.5,3.1,3.4,3.1,3.6,3C3.5,3.1,3.5,3.1,3.6,3C3.7,2.9,3.7,2.9,3.6,3
		C3.7,2.9,3.6,2.9,3.6,3L3.6,3z M2.9,3.8C2.9,3.9,2.8,4,2.7,4C2.7,4.1,2.8,4,2.9,3.8C3,3.7,3,3.6,2.9,3.8L2.9,3.8z M10.7,4.1
		L10.7,4.1L10.7,4.1C10.8,4.1,10.8,4.1,10.7,4.1C10.8,4.1,10.8,4.1,10.7,4.1C10.8,4,10.8,4.1,10.7,4.1 M10.6,4.3L10.6,4.3L10.6,4.3
		C10.6,4.2,10.7,4.2,10.6,4.3C10.6,4.2,10.6,4.2,10.6,4.3L10.6,4.3z M2.6,4.4C2.5,4.4,2.5,4.4,2.6,4.4C2.5,4.4,2.5,4.4,2.6,4.4
		C2.6,4.3,2.6,4.3,2.6,4.4C2.6,4.3,2.6,4.3,2.6,4.4L2.6,4.4z M10.4,4.4L10.4,4.4L10.4,4.4C10.5,4.4,10.5,4.3,10.4,4.4
		C10.5,4.3,10.4,4.4,10.4,4.4L10.4,4.4z M2.4,4.6C2.4,4.7,2.3,4.7,2.4,4.6C2.4,4.7,2.4,4.6,2.4,4.6c0.1-0.1,0.1-0.2,0.1-0.2
		S2.5,4.5,2.4,4.6L2.4,4.6z M10.2,4.5L10.2,4.5L10.2,4.5C10.3,4.5,10.3,4.5,10.2,4.5C10.3,4.5,10.3,4.5,10.2,4.5 M10.1,4.7L10.1,4.7
		L10.1,4.7C10.2,4.6,10.2,4.6,10.1,4.7C10.2,4.6,10.1,4.6,10.1,4.7 M2.4,4.7C2.3,4.8,2.3,4.8,2.4,4.7L2.4,4.7L2.4,4.7 M2.2,5.1
		L2.2,5.1C2.2,5,2.2,5,2.2,5.1C2.2,5,2.2,5,2.2,5.1 M2.1,5.3C2.1,5.3,2.1,5.4,2.1,5.3C2.1,5.4,2.1,5.4,2.1,5.3L2.1,5.3L2.1,5.3
		 M2,5.5C2,5.5,2,5.6,2,5.5C2,5.6,2.1,5.5,2,5.5C2.1,5.5,2,5.5,2,5.5 M6.7,6.3c0,0.2,0,0.3,0,0.2c0-0.1,0-0.2,0-0.3
		C6.7,6.1,6.7,6.2,6.7,6.3L6.7,6.3z M7.4,6.8C7.4,6.8,7.3,6.8,7.4,6.8L7.2,6.9C7.3,6.9,7.4,6.9,7.4,6.8L7.4,6.8L7.4,6.8 M6.8,6.9
		L6.8,6.9C6.9,6.9,6.9,6.9,6.8,6.9C6.8,6.8,6.8,6.8,6.8,6.9 M7,7L7,7C7.1,7,7.1,7,7,7C7,7,6.9,7,7,7 M1.6,7.6L1.6,7.6
		C1.6,7.6,1.6,7.5,1.6,7.6C1.6,7.5,1.6,7.5,1.6,7.6 M1.6,8C1.6,8,1.6,8.1,1.6,8L1.6,8C1.6,7.9,1.6,7.9,1.6,8L1.6,8z M1.6,8.5
		L1.6,8.5C1.6,8.5,1.6,8.4,1.6,8.5C1.6,8.4,1.6,8.4,1.6,8.5L1.6,8.5z M1.6,8.7L1.6,8.7C1.7,8.7,1.7,8.7,1.6,8.7
		C1.6,8.6,1.6,8.6,1.6,8.7L1.6,8.7z M6.9,9.1C6.9,9.1,6.8,9.2,6.9,9.1C6.8,9.2,6.8,9.2,6.9,9.1C6.9,9.2,6.9,9.1,6.9,9.1
		C7,9.1,7,9.1,6.9,9.1L6.9,9.1 M7.1,9.1L7.1,9.1L7.1,9.1C7.1,9.1,7,9.1,7.1,9.1 M7.2,9.2C7.3,9.2,7.3,9.2,7.2,9.2
		C7.2,9.1,7.2,9.1,7.2,9.2C7.2,9.1,7.2,9.1,7.2,9.2L7.2,9.2z M7.4,9.2c0.1,0.1,0.1,0.1,0.1,0.1S7.5,9.3,7.4,9.2L7.4,9.2L7.4,9.2z
		 M6.7,9.8c0,0.2,0,0.3,0,0.2s0-0.3,0-0.4S6.7,9.6,6.7,9.8 M2.2,11L2.2,11c0,0.1,0.1,0.1,0.1,0.1S2.3,11,2.2,11
		C2.2,11,2.2,10.9,2.2,11L2.2,11z M2.3,11.1L2.3,11.1C2.3,11.2,2.3,11.2,2.3,11.1C2.3,11.2,2.3,11.1,2.3,11.1L2.3,11.1L2.3,11.1z
		 M2.4,11.3l0.1,0.2C2.5,11.5,2.5,11.5,2.4,11.3L2.4,11.3L2.4,11.3z M10.1,11.5C10.1,11.5,10.2,11.5,10.1,11.5
		c0.1,0.1,0.1,0.1,0.1,0.1C10.3,11.5,10.1,11.5,10.1,11.5L10.1,11.5z M2.5,11.6C2.5,11.6,2.6,11.7,2.5,11.6
		C2.6,11.7,2.6,11.6,2.5,11.6C2.5,11.6,2.5,11.5,2.5,11.6C2.5,11.5,2.5,11.6,2.5,11.6L2.5,11.6z M10.4,11.7l0.2,0.1
		C10.6,11.8,10.5,11.8,10.4,11.7C10.4,11.7,10.4,11.6,10.4,11.7L10.4,11.7z M10.6,11.8l0.1,0.1c0.1,0.1,0.1,0.1,0.1,0.1l-0.1-0.1
		C10.6,11.8,10.6,11.8,10.6,11.8L10.6,11.8z M2.8,12C2.8,12,2.8,12.1,2.8,12l0.1,0.1L2.8,12L2.8,12L2.8,12L2.8,12 M10.8,12l0.1,0.1
		c0.1,0.1,0.1,0.1,0.1,0.1l-0.1-0.1C10.9,12,10.8,12,10.8,12L10.8,12z M2.9,12.3C3,12.3,3,12.3,2.9,12.3C3,12.3,2.9,12.2,2.9,12.3
		C2.9,12.2,2.9,12.2,2.9,12.3L2.9,12.3z M11.1,12.2C11.1,12.2,11.1,12.3,11.1,12.2c0.1,0.1,0.1,0.1,0.1,0.1
		C11.2,12.3,11.1,12.2,11.1,12.2L11.1,12.2z M3.3,12.8L3.3,12.8L3.3,12.8L3.3,12.8L3.3,12.8L3.3,12.8z M6.7,13.7c0,0.5,0,0.7,0,0.4
		c0-0.2,0-0.6,0-0.8C6.7,13,6.7,13.2,6.7,13.7L6.7,13.7z M3.4,12.9L3.4,12.9L3.4,12.9L3.4,12.9L3.4,12.9 M3.5,13
		C3.6,13.1,3.6,13.1,3.5,13C3.6,13.1,3.6,13.1,3.5,13L3.5,13L3.5,13 M3.7,13.2c0.1,0.1,0.1,0.1,0.1,0.1S3.8,13.3,3.7,13.2
		c0-0.1-0.1-0.1-0.1-0.1C3.6,13.1,3.7,13.2,3.7,13.2 M12.6,13.5C12.7,13.6,12.7,13.6,12.6,13.5C12.7,13.6,12.7,13.6,12.6,13.5
		L12.6,13.5L12.6,13.5 M4.2,13.7L4.2,13.7L4.2,13.7C4.2,13.6,4.1,13.6,4.2,13.7C4.1,13.6,4.2,13.6,4.2,13.7L4.2,13.7z M12.8,13.7
		L12.8,13.7L12.8,13.7C12.8,13.7,12.7,13.6,12.8,13.7C12.7,13.6,12.7,13.7,12.8,13.7L12.8,13.7z M5,14.3L5,14.3
		C5.1,14.3,5.1,14.3,5,14.3L5,14.3L5,14.3 M5.4,14.3L5.4,14.3c-0.1,0-0.1,0.1-0.1,0.1C5.3,14.3,5.5,14.3,5.4,14.3
		C5.5,14.3,5.5,14.3,5.4,14.3 M5.1,14.3L5.1,14.3C5.2,14.3,5.2,14.3,5.1,14.3L5.1,14.3 M5.2,14.3L5.2,14.3
		C5.3,14.3,5.3,14.3,5.2,14.3L5.2,14.3L5.2,14.3z M6.7,14.7c0,0.1,0.2,0.3,0.3,0.4c0,0,0,0-0.1-0.1C6.9,14.9,6.8,14.9,6.7,14.7
		C6.8,14.7,6.7,14.6,6.7,14.7 M11.9,14.9L11.9,14.9L11.9,14.9C12,14.9,12,14.8,11.9,14.9C12,14.8,11.9,14.9,11.9,14.9L11.9,14.9z
		 M11.6,15L11.6,15C11.7,15,11.7,15,11.6,15C11.7,15,11.6,15,11.6,15 M11.3,15.1L11.3,15.1C11.4,15.1,11.4,15.1,11.3,15.1
		C11.4,15.1,11.4,15.1,11.3,15.1L11.3,15.1z M11.1,15.2L11.1,15.2C11.1,15.2,11.2,15.2,11.1,15.2C11.2,15.1,11.2,15.1,11.1,15.2
		C11.2,15.1,11.2,15.1,11.1,15.2 M7.3,15.2L7.3,15.2L7.3,15.2L7.3,15.2C7.2,15.2,7.3,15.2,7.3,15.2L7.3,15.2z M11,15.2L11,15.2
		L11,15.2L11,15.2L11,15.2L11,15.2z M10.9,15.2C10.9,15.2,10.9,15.3,10.9,15.2C10.9,15.3,10.9,15.2,10.9,15.2L10.9,15.2L10.9,15.2
		L10.9,15.2z M10.8,15.3C10.7,15.3,10.7,15.3,10.8,15.3L10.8,15.3L10.8,15.3L10.8,15.3 M7.6,15.3L7.6,15.3
		C7.7,15.3,7.7,15.3,7.6,15.3S7.5,15.3,7.6,15.3 M10.4,15.4L10.4,15.4L10.4,15.4C10.5,15.4,10.5,15.3,10.4,15.4
		C10.5,15.3,10.4,15.4,10.4,15.4L10.4,15.4z M7.9,15.4C7.9,15.4,8,15.4,7.9,15.4C8,15.4,8,15.4,7.9,15.4L7.9,15.4L7.9,15.4z M8,15.4
		C8,15.4,8.1,15.4,8,15.4C8.1,15.4,8.1,15.4,8,15.4L8,15.4L8,15.4z M8.1,15.4C8.2,15.4,8.2,15.4,8.1,15.4
		C8.2,15.4,8.2,15.4,8.1,15.4L8.1,15.4L8.1,15.4z M8.3,15.4L8.3,15.4C8.4,15.4,8.3,15.4,8.3,15.4L8.3,15.4 M8.4,15.4
		C8.5,15.5,8.5,15.5,8.4,15.4C8.5,15.4,8.5,15.4,8.4,15.4L8.4,15.4 M8.6,15.5h0.1C8.8,15.5,8.7,15.5,8.6,15.5L8.6,15.5L8.6,15.5z
		 M9.8,15.5L9.8,15.5C9.9,15.5,9.9,15.5,9.8,15.5L9.8,15.5 M8.9,15.5c0,0,0.1,0,0.2,0C9.1,15.5,9.1,15.5,8.9,15.5
		C8.9,15.5,8.8,15.5,8.9,15.5 M9.6,15.5h0.1C9.7,15.5,9.7,15.5,9.6,15.5L9.6,15.5 M9.3,15.5h0.1C9.4,15.5,9.4,15.5,9.3,15.5
		C9.3,15.5,9.2,15.5,9.3,15.5"/>
	
		<radialGradient id="SVGID_3_" cx="7.31" cy="1070.0775" r="6.6122" gradientTransform="matrix(1 0 0 1 0 -1062)" gradientUnits="userSpaceOnUse">
		<stop  offset="0" style="stop-color:#FFFFFF"/>
		<stop  offset="1" style="stop-color:#000000"/>
	</radialGradient>
	<path class="st4" d="M8.8,0.6c0,0-0.2,0-0.3,0C7.4,0.7,6.9,0.9,6.7,1.4v0.1v2.1c0,2.5,0,3.1,0.1,3.2C6.8,6.9,7,7,7.2,6.9
		C7.3,6.9,8,6.4,9.7,5c0.2-0.2,0.5-0.4,0.6-0.5s0.4-0.3,0.5-0.4C11,4,11.1,3.8,11.2,3.7c0.1-0.1,0.4-0.3,0.9-0.7
		c0.8-0.6,0.9-0.9,0.8-1.1c-0.1-0.2-1-0.7-1.8-0.9C11,1,11,1,10.9,0.9c0-0.1-0.5-0.2-0.9-0.3C9.8,0.6,9,0.6,8.8,0.6L8.8,0.6z
		 M5.1,1.8c-0.1,0-0.6,0.3-1,0.6c-0.9,0.8-1.6,1.9-2,3C2.1,5.5,2,5.5,2,5.6c-0.1,0.2-0.3,1.3-0.4,2c0,0.8,0.2,2.3,0.4,2.9
		c0,0,0,0.1,0.1,0.2c0.2,0.5,0.5,1.2,0.8,1.6c0.7,1,1.8,2,2.2,2.1c0.2,0,0.4-0.1,0.5-0.3c0-0.1,0-12,0-12C5.5,1.8,5.3,1.7,5.1,1.8
		 M6.9,9.1c-0.1,0-0.2,0.1-0.2,0.2c0,0.1-0.1,5.1,0,5.2c0.1,0.6,0.7,0.9,2.4,0.9c1,0,2.3-0.3,3.4-0.9c0.5-0.3,0.5-0.6,0-1
		c-0.2-0.2-1.1-0.9-1.7-1.4c-0.1-0.1-0.3-0.3-0.4-0.3c-0.1-0.1-0.2-0.2-0.4-0.3c-0.1-0.1-0.3-0.3-0.4-0.3c-0.1-0.1-1-0.8-1.4-1.1
		C8.1,9.8,7.5,9.3,7.4,9.3C7.3,9.2,7.1,9.1,6.9,9.1"/>
</g>
<text transform="matrix(0.9961 0 0 1 18.9722 12.6621)" class="st5 st6 st7">olin </text>
</svg>
