<?xml version="1.0" encoding="utf-8"?>
<!-- Generator: Adobe Illustrator 22.0.1, SVG Export Plug-In . SVG Version: 6.00 Build 0)  -->
<svg version="1.1" id="Layer_1" xmlns="http://www.w3.org/2000/svg" xmlns:xlink="http://www.w3.org/1999/xlink" x="0px" y="0px"
	 viewBox="0 0 200 200" style="enable-background:new 0 0 200 200;" xml:space="preserve">
<style type="text/css">
	.st0{fill:#ED1E24;}
</style>
<g>
	<g>
		<path d="M27,155.1H21v-33.5H27v14.2l19.9-14.2h9.5l-24,16.4l25.1,17h-9.9L27,140.8V155.1z"/>
		<path d="M66,121.6c2.3,0,23.5,0,23.5,0c3.7,0,6.7,2,6.7,5.5v22.5c0,3.5-3,5.5-6.7,5.5H66c-3.7,0-6.7-1.9-6.7-5.5v-22.5
			C59.3,123.6,62.3,121.6,66,121.6z M90.2,150.1v-23.5H65.3v23.5H90.2z"/>
		<path d="M101.5,121.6h5.9v28.5h24.2v5h-30.1V121.6z"/>
		<path d="M141.7,121.6v33.5h-5.9v-33.5H141.7z"/>
		<path d="M153.2,155.1h-5.9v-33.5h6.1l24.7,25.1v-25.1h5.9v33.5H178l-24.8-25.2V155.1z"/>
	</g>
	<g>
		<g>
			<path d="M112.1,59.5c0,0-31.1,26.2-32.7,28.8c-1.1,1.8,32.7,28.8,32.7,28.8H96.6L62.7,88.3l35.9-28.8H112.1z"/>
			<polygon class="st0" points="80.6,67.3 61.9,83.9 61.9,67.3 			"/>
			<polygon class="st0" points="80.6,109.7 61.9,93.1 61.9,109.7 			"/>
		</g>
		<path d="M102.1,30.8c-20.1,0-36.9,16-40.1,36.5c4.6-17,19.3-29.7,36.6-29.7c21.1,0,38.2,18.3,38.2,40.8
			c0,17.1-10.8,32.6-24.7,38.7c17.2-5.1,30.7-22.9,30.7-42.8C142.7,50.3,124.5,30.8,102.1,30.8z"/>
	</g>
</g>
<g>
</g>
<g>
</g>
<g>
</g>
<g>
</g>
<g>
</g>
<g>
</g>
</svg>
