<?xml version="1.0" encoding="utf-8"?>
<!-- Generator: Adobe Illustrator 23.0.1, SVG Export Plug-In . SVG Version: 6.00 Build 0)  -->
<svg version="1.1"
	 id="Layer_1" inkscape:version="0.92.3 (2405546, 2018-03-11)" sodipodi:docname="logo-mini.svg" xmlns:cc="http://creativecommons.org/ns#" xmlns:dc="http://purl.org/dc/elements/1.1/" xmlns:inkscape="http://www.inkscape.org/namespaces/inkscape" xmlns:rdf="http://www.w3.org/1999/02/22-rdf-syntax-ns#" xmlns:sodipodi="http://sodipodi.sourceforge.net/DTD/sodipodi-0.dtd" xmlns:svg="http://www.w3.org/2000/svg"
	 xmlns="http://www.w3.org/2000/svg" xmlns:xlink="http://www.w3.org/1999/xlink" x="0px" y="0px" viewBox="0 0 15.9 16.1"
	 style="enable-background:new 0 0 15.9 16.1;" xml:space="preserve">
<style type="text/css">
	.st0{fill-rule:evenodd;clip-rule:evenodd;fill:url(#SVGID_1_);}
	.st1{fill-rule:evenodd;clip-rule:evenodd;fill:url(#SVGID_2_);}
	.st2{fill-rule:evenodd;clip-rule:evenodd;fill:url(#SVGID_3_);}
</style>
<g>
	<radialGradient id="SVGID_1_" cx="8.0557" cy="7.6432" r="7.5" gradientUnits="userSpaceOnUse">
		<stop  offset="0" style="stop-color:#FFFFFF"/>
		<stop  offset="1" style="stop-color:#000000"/>
	</radialGradient>
	<path class="st0" d="M7.7,0.1c-0.5,0-0.5,0-0.8,0.1C6.1,0.4,5.8,0.6,5.6,1.1c0,0.2,0,5.2,0,5.3C5.7,6.6,5.8,6.6,6,6.6
		c0.3,0,0.3,0,0.9-0.6c0.3-0.3,0.6-0.5,0.6-0.5c0,0,0.7-0.6,0.7-0.6c0,0,2.4-2,2.4-2c0,0,0.1-0.1,0.2-0.2c0.5-0.4,0.8-0.7,0.9-0.8
		c0,0,0.1-0.1,0.1-0.1C12,1.8,12.1,1.6,12,1.4C11.9,1,10.1,0.3,8.8,0.2C8.7,0.1,7.8,0.1,7.7,0.1L7.7,0.1z M8.9,0.2
		c0.9,0.1,1.9,0.5,2.7,0.9C12,1.4,12.1,1.7,11.8,2c-0.2,0.2-1.1,1-1.8,1.5C9.9,3.6,9.9,3.6,9.8,3.7S9.7,3.8,9.5,3.9
		C9.3,4.1,9.1,4.2,9.1,4.3c-0.2,0.2-1.7,1.4-2.5,2c-0.4,0.3-0.7,0.3-0.8,0c0-0.1,0-5.1,0-5.2c0.1-0.5,0.5-0.7,1.4-0.8
		C7.8,0.2,8.4,0.2,8.9,0.2 M4.1,1.3c0,0-0.1,0.1-0.2,0.1c-0.1,0-0.1,0.1-0.2,0.1C2.8,2,1.8,3.3,1.2,4.4c-1.5,3.2-0.5,7,2.2,9.2
		c0.2,0.1,0.3,0.2,0.3,0.2c0,0,0.1,0,0.1,0.1c0.3,0.2,0.7,0.1,0.8-0.2c0-0.1,0-11.9,0-12.1C4.7,1.4,4.4,1.2,4.1,1.3 M4.4,1.4
		c0.1,0,0.2,0.1,0.2,0.2l0,0.1l0,6l0,6l0,0.1C4.5,13.9,4.2,14,4,13.9c-0.5-0.2-1.4-1.1-1.9-1.8c-2.3-3-1.9-7.4,0.8-9.9
		c0.4-0.4,1-0.8,1.2-0.9c0,0,0.1,0,0.1,0C4.2,1.3,4.3,1.3,4.4,1.4 M12.9,2.4c-0.2,0.1-0.1,0-1.1,0.8c-0.4,0.4-1.1,0.9-1.4,1.1
		c-0.3,0.3-0.6,0.5-0.6,0.5c-0.1,0.1-2.4,2-2.4,2c0,0-0.5,0.4-0.5,0.4C6.7,7.6,6.7,7.8,7.1,8.1c0.1,0,0.1,0.1,0.1,0.1
		c0,0,0.2,0.2,0.2,0.2c0,0,2.7,2.3,2.8,2.3c0,0,0.2,0.2,0.4,0.4c0.2,0.2,0.7,0.6,1.1,0.9c0.6,0.5,0.8,0.6,1,0.7l0.2,0.1h0.2
		c0.3,0,0.5-0.1,0.9-0.6c1.2-1.4,1.8-3.5,1.5-5.6c-0.2-1.6-0.8-3-1.7-3.9C13.4,2.4,13.2,2.3,12.9,2.4L12.9,2.4z M13.3,2.5
		c0.5,0.2,1.4,1.4,1.8,2.7c0.6,2,0.6,3.9-0.2,5.7c-0.4,0.9-1.1,1.8-1.5,1.9c-0.3,0.1-0.6,0-1.5-0.8c-0.1-0.1-0.6-0.5-1.2-1
		c-0.2-0.2-0.4-0.3-0.4-0.3c0,0-0.1-0.1-0.1-0.1c-0.1,0-0.2-0.2-0.4-0.4c-0.2-0.1-0.5-0.4-0.6-0.5C8.9,9.5,8.8,9.4,8.8,9.4
		c0,0-1.6-1.4-1.7-1.4C6.7,7.7,6.8,7.5,7.3,7.1c0.2-0.1,1-0.8,1.1-0.9c0,0,0.2-0.2,0.4-0.3c0.2-0.2,0.4-0.3,0.4-0.4
		c0,0,0.2-0.2,0.4-0.3C9.7,5.1,9.9,4.9,10,4.8c0.4-0.3,0.6-0.5,0.7-0.5c0,0,0.2-0.1,0.4-0.3c0.2-0.2,0.4-0.3,0.4-0.3
		c0,0,0.2-0.2,0.4-0.3c0.2-0.2,0.5-0.4,0.6-0.5C12.8,2.5,13,2.4,13.3,2.5 M5.8,8.7c-0.1,0-0.1,0.1-0.2,0.2c0,0.1-0.1,5.1,0,5.2
		c0.1,0.3,0.3,0.5,0.6,0.7c0.6,0.3,2.2,0.4,3.1,0.2c1.1-0.2,2.5-0.8,2.7-1.2c0.1-0.1,0-0.4,0-0.5c0,0,0-0.1-0.1-0.1
		c-0.1-0.1-0.2-0.2-0.5-0.5c-0.1-0.1-0.2-0.2-0.2-0.2c-0.1-0.1-0.7-0.6-1.3-1.1c-0.7-0.5-1.4-1.2-1.5-1.2C8.2,10.2,8,10,8,10
		c0,0-1-0.8-1.4-1.1C6.3,8.7,6,8.6,5.8,8.7 M6.3,8.8c0.1,0,0.7,0.5,2.5,2c0.2,0.2,0.5,0.4,0.5,0.4c0.1,0.1,0.3,0.2,0.4,0.4
		c0.2,0.1,0.3,0.3,0.4,0.3c0.1,0.1,0.1,0.1,0.1,0.1c0,0,0.1,0.1,0.2,0.2c1.5,1.2,1.6,1.4,1.4,1.7c-0.1,0.2-0.4,0.4-1,0.6
		c0,0-0.1,0-0.2,0.1c-0.9,0.4-2,0.6-3.1,0.5c-1.3-0.1-1.8-0.3-2-0.9c0-0.1,0-5.1,0-5.2C5.8,8.7,6,8.6,6.3,8.8"/>
	<radialGradient id="SVGID_2_" cx="8.0573" cy="7.643" r="7.4465" gradientUnits="userSpaceOnUse">
		<stop  offset="0" style="stop-color:#FFFFFF"/>
		<stop  offset="1" style="stop-color:#000000"/>
	</radialGradient>
	<path class="st1" d="M8.1,0.2c0.1,0,0.2,0,0.2,0s0,0-0.1,0C8.1,0.2,8.1,0.2,8.1,0.2 M7.7,0.2C7.8,0.2,7.8,0.2,7.7,0.2
		C7.8,0.2,7.8,0.2,7.7,0.2C7.7,0.2,7.7,0.2,7.7,0.2 M8.7,0.2C8.7,0.2,8.7,0.2,8.7,0.2C8.7,0.2,8.7,0.2,8.7,0.2
		C8.7,0.2,8.6,0.2,8.7,0.2L8.7,0.2z M10.1,0.5C10.2,0.5,10.2,0.5,10.1,0.5C10.2,0.5,10.2,0.5,10.1,0.5C10.2,0.5,10.1,0.5,10.1,0.5
		C10.1,0.5,10.1,0.5,10.1,0.5 M6.1,0.6c0,0-0.1,0.1-0.1,0.1C6,0.7,6,0.7,6.1,0.6C6,0.6,6.1,0.6,6.1,0.6C6.2,0.5,6.2,0.5,6.1,0.6
		C6.2,0.5,6.1,0.5,6.1,0.6L6.1,0.6z M10.3,0.6C10.3,0.6,10.4,0.6,10.3,0.6C10.4,0.6,10.4,0.6,10.3,0.6C10.4,0.6,10.4,0.6,10.3,0.6
		C10.3,0.6,10.3,0.6,10.3,0.6L10.3,0.6z M10.5,0.6C10.5,0.6,10.5,0.6,10.5,0.6C10.6,0.7,10.6,0.7,10.5,0.6
		C10.5,0.6,10.5,0.6,10.5,0.6C10.5,0.6,10.5,0.6,10.5,0.6L10.5,0.6z M10.8,0.8C10.9,0.8,10.9,0.8,10.8,0.8
		C10.9,0.8,10.9,0.8,10.8,0.8C10.8,0.8,10.8,0.8,10.8,0.8C10.8,0.8,10.8,0.8,10.8,0.8 M5.8,0.8c0,0-0.1,0.1-0.1,0.1
		C5.8,0.9,5.8,0.9,5.8,0.8C5.9,0.8,5.9,0.8,5.8,0.8 M10.9,0.8C11,0.8,11,0.8,10.9,0.8C11,0.8,11,0.8,10.9,0.8
		C11,0.8,10.9,0.8,10.9,0.8C10.9,0.8,10.9,0.8,10.9,0.8 M11,0.8c0,0,0.5,0.2,0.5,0.2C11.5,1.1,11,0.8,11,0.8C11,0.8,11,0.8,11,0.8
		 M11.5,1.1C11.5,1.1,11.6,1.1,11.5,1.1C11.6,1.2,11.6,1.2,11.5,1.1C11.6,1.2,11.6,1.1,11.5,1.1C11.6,1.1,11.5,1.1,11.5,1.1
		L11.5,1.1z M5.7,1.2c0,0,0,0.4,0,0.8l0,0.8l0-0.8C5.7,1.5,5.7,1.1,5.7,1.2C5.7,1.1,5.7,1.1,5.7,1.2 M11.6,1.2
		C11.6,1.2,11.7,1.2,11.6,1.2C11.7,1.2,11.7,1.2,11.6,1.2C11.7,1.2,11.7,1.2,11.6,1.2C11.7,1.2,11.6,1.2,11.6,1.2L11.6,1.2z
		 M4.1,1.4C4,1.4,4,1.4,4.1,1.4C4.2,1.3,4.2,1.3,4.1,1.4C4.1,1.3,4.1,1.3,4.1,1.4 M4.5,1.4C4.5,1.4,4.5,1.4,4.5,1.4L4.5,1.4L4.5,1.4
		C4.5,1.4,4.5,1.4,4.5,1.4 M3.7,1.6C3.6,1.7,3.6,1.7,3.7,1.6C3.6,1.7,3.7,1.6,3.7,1.6C3.8,1.5,3.7,1.6,3.7,1.6L3.7,1.6z M4.7,7.6
		c0,3.2,0,4.5,0,2.9c0-1.6,0-4.2,0-5.8C4.7,3.1,4.7,4.4,4.7,7.6L4.7,7.6z M11.7,2.1c-0.1,0.1-0.1,0.1-0.1,0.1
		C11.6,2.2,11.7,2.1,11.7,2.1c0.1-0.1,0.1-0.1,0.1-0.1C11.8,1.9,11.8,2,11.7,2.1L11.7,2.1z M2.9,2.2L2.9,2.2L2.9,2.2
		C3,2.2,3,2.2,2.9,2.2C3,2.2,2.9,2.2,2.9,2.2 M11.5,2.2L11.5,2.2L11.5,2.2C11.6,2.2,11.6,2.2,11.5,2.2C11.6,2.2,11.5,2.2,11.5,2.2
		L11.5,2.2z M11.4,2.4L11.4,2.4L11.4,2.4C11.4,2.3,11.4,2.3,11.4,2.4C11.4,2.3,11.4,2.3,11.4,2.4L11.4,2.4z M12.9,2.5
		c-0.1,0-0.3,0.1-0.5,0.3c-0.1,0.1-0.4,0.3-0.6,0.5c-0.2,0.2-0.4,0.3-0.4,0.3c0,0-0.2,0.2-0.4,0.3c-0.2,0.2-0.4,0.3-0.4,0.3
		c0,0-0.2,0.2-0.7,0.5C9.9,4.9,9.7,5.1,9.5,5.2C9.3,5.4,9.2,5.5,9.1,5.6c0,0-0.2,0.2-0.4,0.4C8.5,6.1,8.3,6.2,8.3,6.2
		C8.2,6.3,7.4,7,7.3,7.1C6.8,7.5,6.7,7.7,7.1,8C7.1,8,8.8,9.4,8.8,9.4c0,0,0.2,0.1,0.3,0.3c0.2,0.1,0.5,0.4,0.6,0.5
		c0.2,0.1,0.4,0.3,0.4,0.4c0.1,0,0.1,0.1,0.1,0.1c0,0,0.2,0.2,0.4,0.3c0.6,0.5,1.1,0.9,1.2,1c1.1,1,1.3,1,1.9,0.5
		c1.3-1.3,1.9-3.4,1.7-5.4c-0.2-1.8-0.8-3.3-1.8-4.3C13.4,2.5,13.2,2.4,12.9,2.5L12.9,2.5z M2.6,2.6C2.5,2.7,2.4,2.7,2.5,2.7
		C2.5,2.7,2.5,2.7,2.6,2.6c0.1-0.1,0.1-0.1,0.1-0.1C2.7,2.5,2.6,2.5,2.6,2.6L2.6,2.6z M1.9,3.4C1.9,3.5,1.8,3.6,1.7,3.6
		C1.7,3.7,1.8,3.6,1.9,3.4C2,3.3,2,3.2,1.9,3.4L1.9,3.4z M9.7,3.7L9.7,3.7L9.7,3.7C9.8,3.7,9.8,3.7,9.7,3.7C9.8,3.7,9.8,3.7,9.7,3.7
		C9.8,3.6,9.8,3.7,9.7,3.7 M9.6,3.9L9.6,3.9L9.6,3.9C9.6,3.8,9.7,3.8,9.6,3.9C9.6,3.8,9.6,3.8,9.6,3.9L9.6,3.9z M1.6,4
		C1.5,4,1.5,4,1.6,4C1.5,4,1.5,4,1.6,4C1.6,3.9,1.6,3.9,1.6,4C1.6,3.9,1.6,3.9,1.6,4L1.6,4z M9.4,4L9.4,4L9.4,4C9.5,4,9.5,3.9,9.4,4
		C9.5,3.9,9.4,4,9.4,4L9.4,4z M1.4,4.2c0,0.1-0.1,0.1-0.1,0.1C1.4,4.3,1.4,4.2,1.4,4.2C1.5,4.1,1.5,4,1.5,4C1.5,4,1.5,4.1,1.4,4.2
		L1.4,4.2z M9.2,4.1L9.2,4.1L9.2,4.1C9.3,4.1,9.3,4.1,9.2,4.1C9.3,4.1,9.3,4.1,9.2,4.1 M9.1,4.3L9.1,4.3L9.1,4.3
		C9.2,4.2,9.2,4.2,9.1,4.3C9.2,4.2,9.1,4.2,9.1,4.3 M1.4,4.3C1.3,4.4,1.3,4.4,1.4,4.3C1.4,4.3,1.4,4.3,1.4,4.3
		C1.4,4.3,1.4,4.3,1.4,4.3 M1.2,4.7C1.2,4.7,1.2,4.7,1.2,4.7C1.2,4.6,1.2,4.6,1.2,4.7C1.2,4.6,1.2,4.6,1.2,4.7 M1.1,4.9
		C1.1,4.9,1.1,5,1.1,4.9C1.1,5,1.1,5,1.1,4.9C1.1,4.9,1.1,4.9,1.1,4.9C1.1,4.9,1.1,4.9,1.1,4.9 M1,5.1C1,5.1,1,5.2,1,5.1
		C1,5.2,1.1,5.1,1,5.1C1.1,5.1,1,5.1,1,5.1 M5.7,5.9c0,0.2,0,0.3,0,0.2c0-0.1,0-0.2,0-0.3C5.7,5.7,5.7,5.8,5.7,5.9L5.7,5.9z
		 M6.4,6.4c0,0-0.1,0-0.1,0.1c0,0-0.1,0-0.1,0C6.3,6.5,6.4,6.5,6.4,6.4C6.4,6.4,6.4,6.4,6.4,6.4C6.4,6.4,6.4,6.4,6.4,6.4 M5.8,6.5
		C5.8,6.5,5.8,6.5,5.8,6.5C5.9,6.5,5.9,6.5,5.8,6.5C5.8,6.4,5.8,6.4,5.8,6.5 M6,6.6c0,0,0.1,0,0.1,0C6.1,6.6,6.1,6.6,6,6.6
		C6,6.6,5.9,6.6,6,6.6 M0.6,7.2C0.6,7.2,0.6,7.2,0.6,7.2C0.6,7.2,0.6,7.1,0.6,7.2C0.6,7.1,0.6,7.1,0.6,7.2 M0.6,7.6
		C0.6,7.6,0.6,7.7,0.6,7.6C0.6,7.6,0.6,7.6,0.6,7.6C0.6,7.5,0.6,7.5,0.6,7.6L0.6,7.6z M0.6,8.1C0.6,8.1,0.6,8.1,0.6,8.1
		C0.6,8.1,0.6,8,0.6,8.1C0.6,8,0.6,8,0.6,8.1L0.6,8.1z M0.6,8.3C0.6,8.3,0.6,8.3,0.6,8.3C0.7,8.3,0.7,8.3,0.6,8.3
		C0.6,8.2,0.6,8.2,0.6,8.3L0.6,8.3z M5.9,8.7C5.9,8.7,5.8,8.8,5.9,8.7C5.8,8.8,5.8,8.8,5.9,8.7C5.9,8.8,5.9,8.7,5.9,8.7
		C6,8.7,6,8.7,5.9,8.7C5.9,8.7,5.9,8.7,5.9,8.7 M6.1,8.7C6.1,8.7,6.1,8.7,6.1,8.7C6.1,8.7,6.1,8.7,6.1,8.7C6.1,8.7,6,8.7,6.1,8.7
		 M6.2,8.8C6.3,8.8,6.3,8.8,6.2,8.8C6.2,8.7,6.2,8.7,6.2,8.8C6.2,8.7,6.2,8.7,6.2,8.8L6.2,8.8z M6.4,8.8c0.1,0.1,0.1,0.1,0.1,0.1
		C6.5,8.9,6.5,8.9,6.4,8.8C6.4,8.8,6.4,8.8,6.4,8.8L6.4,8.8z M5.7,9.4c0,0.2,0,0.3,0,0.2c0-0.1,0-0.3,0-0.4C5.7,9.1,5.7,9.2,5.7,9.4
		 M1.2,10.6C1.2,10.6,1.2,10.6,1.2,10.6c0,0.1,0.1,0.1,0.1,0.1C1.3,10.7,1.3,10.6,1.2,10.6C1.2,10.6,1.2,10.5,1.2,10.6L1.2,10.6z
		 M1.3,10.7C1.3,10.7,1.3,10.7,1.3,10.7C1.3,10.8,1.3,10.8,1.3,10.7C1.3,10.8,1.3,10.7,1.3,10.7C1.3,10.7,1.3,10.7,1.3,10.7
		L1.3,10.7z M1.4,10.9c0,0,0.1,0.2,0.1,0.2C1.5,11.1,1.5,11.1,1.4,10.9C1.4,10.9,1.4,10.9,1.4,10.9L1.4,10.9z M9.1,11.1
		C9.1,11.1,9.2,11.1,9.1,11.1c0.1,0.1,0.1,0.1,0.1,0.1C9.3,11.1,9.1,11.1,9.1,11.1L9.1,11.1z M1.5,11.2C1.5,11.2,1.6,11.3,1.5,11.2
		C1.6,11.3,1.6,11.2,1.5,11.2C1.5,11.2,1.5,11.1,1.5,11.2C1.5,11.1,1.5,11.2,1.5,11.2L1.5,11.2z M9.4,11.3c0,0,0.2,0.1,0.2,0.1
		C9.6,11.4,9.5,11.4,9.4,11.3C9.4,11.3,9.4,11.2,9.4,11.3L9.4,11.3z M9.6,11.4c0,0,0.1,0.1,0.1,0.1c0.1,0.1,0.1,0.1,0.1,0.1
		c0,0-0.1-0.1-0.1-0.1C9.6,11.4,9.6,11.4,9.6,11.4L9.6,11.4z M1.8,11.6C1.8,11.6,1.8,11.7,1.8,11.6l0.1,0.1L1.8,11.6
		C1.8,11.6,1.8,11.6,1.8,11.6L1.8,11.6L1.8,11.6 M9.8,11.6c0,0,0.1,0.1,0.1,0.1c0.1,0.1,0.1,0.1,0.1,0.1c0,0-0.1-0.1-0.1-0.1
		C9.9,11.6,9.8,11.6,9.8,11.6L9.8,11.6z M1.9,11.9C2,11.9,2,11.9,1.9,11.9C2,11.9,1.9,11.8,1.9,11.9C1.9,11.8,1.9,11.8,1.9,11.9
		L1.9,11.9z M10.1,11.8C10.1,11.8,10.1,11.9,10.1,11.8c0.1,0.1,0.1,0.1,0.1,0.1C10.2,11.9,10.1,11.8,10.1,11.8L10.1,11.8z M2.3,12.4
		C2.3,12.4,2.3,12.4,2.3,12.4L2.3,12.4L2.3,12.4C2.3,12.4,2.3,12.4,2.3,12.4L2.3,12.4z M5.7,13.3c0,0.5,0,0.7,0,0.4
		c0-0.2,0-0.6,0-0.8C5.7,12.6,5.7,12.8,5.7,13.3L5.7,13.3z M2.4,12.5C2.4,12.5,2.4,12.5,2.4,12.5L2.4,12.5L2.4,12.5
		C2.4,12.5,2.4,12.5,2.4,12.5 M2.5,12.6C2.6,12.7,2.6,12.7,2.5,12.6C2.6,12.7,2.6,12.7,2.5,12.6C2.5,12.6,2.5,12.6,2.5,12.6
		C2.5,12.6,2.5,12.6,2.5,12.6 M2.7,12.8c0.1,0.1,0.1,0.1,0.1,0.1S2.8,12.9,2.7,12.8c0-0.1-0.1-0.1-0.1-0.1
		C2.6,12.7,2.7,12.8,2.7,12.8 M11.6,13.1C11.7,13.2,11.7,13.2,11.6,13.1C11.7,13.2,11.7,13.2,11.6,13.1
		C11.6,13.1,11.6,13.1,11.6,13.1C11.6,13.1,11.6,13.1,11.6,13.1 M3.2,13.3C3.2,13.3,3.2,13.3,3.2,13.3C3.2,13.3,3.2,13.3,3.2,13.3
		C3.2,13.2,3.1,13.2,3.2,13.3C3.1,13.2,3.2,13.2,3.2,13.3L3.2,13.3z M11.8,13.3C11.8,13.3,11.8,13.3,11.8,13.3
		C11.8,13.3,11.8,13.3,11.8,13.3C11.8,13.3,11.7,13.2,11.8,13.3C11.7,13.2,11.7,13.3,11.8,13.3L11.8,13.3z M4,13.9
		C4,13.9,4,13.9,4,13.9C4.1,13.9,4.1,13.9,4,13.9L4,13.9L4,13.9 M4.4,13.9C4.4,13.9,4.4,13.9,4.4,13.9c-0.1,0-0.1,0.1-0.1,0.1
		C4.3,13.9,4.5,13.9,4.4,13.9C4.5,13.9,4.5,13.9,4.4,13.9 M4.1,13.9C4.1,13.9,4.1,13.9,4.1,13.9C4.2,13.9,4.2,13.9,4.1,13.9
		C4.1,13.9,4.1,13.9,4.1,13.9 M4.2,13.9C4.2,13.9,4.2,13.9,4.2,13.9C4.3,13.9,4.3,13.9,4.2,13.9C4.2,13.9,4.2,13.9,4.2,13.9
		L4.2,13.9z M5.7,14.3c0,0.1,0.2,0.3,0.3,0.4c0,0,0,0-0.1-0.1C5.9,14.5,5.8,14.5,5.7,14.3C5.8,14.3,5.7,14.2,5.7,14.3 M10.9,14.5
		C10.9,14.5,10.9,14.5,10.9,14.5C10.9,14.5,10.9,14.5,10.9,14.5C11,14.5,11,14.4,10.9,14.5C11,14.4,10.9,14.5,10.9,14.5L10.9,14.5z
		 M10.6,14.6C10.6,14.6,10.6,14.6,10.6,14.6C10.7,14.6,10.7,14.6,10.6,14.6C10.7,14.6,10.6,14.6,10.6,14.6 M10.3,14.7
		C10.3,14.7,10.3,14.7,10.3,14.7C10.4,14.7,10.4,14.7,10.3,14.7C10.4,14.7,10.4,14.7,10.3,14.7L10.3,14.7z M10.1,14.8
		C10.1,14.8,10.1,14.8,10.1,14.8C10.1,14.8,10.2,14.8,10.1,14.8C10.2,14.7,10.2,14.7,10.1,14.8C10.2,14.7,10.2,14.7,10.1,14.8
		 M6.3,14.8C6.3,14.8,6.3,14.8,6.3,14.8C6.3,14.8,6.3,14.8,6.3,14.8C6.3,14.8,6.3,14.8,6.3,14.8C6.2,14.8,6.3,14.8,6.3,14.8
		L6.3,14.8z M10,14.8C10,14.8,10,14.8,10,14.8C10,14.8,10,14.8,10,14.8C10,14.8,10,14.8,10,14.8C10,14.8,10,14.8,10,14.8L10,14.8z
		 M9.9,14.8C9.9,14.8,9.9,14.9,9.9,14.8C9.9,14.9,9.9,14.8,9.9,14.8C9.9,14.8,9.9,14.8,9.9,14.8C9.9,14.8,9.9,14.8,9.9,14.8
		L9.9,14.8z M9.8,14.9C9.7,14.9,9.7,14.9,9.8,14.9C9.8,14.9,9.8,14.9,9.8,14.9C9.8,14.9,9.8,14.9,9.8,14.9
		C9.8,14.9,9.8,14.9,9.8,14.9 M6.6,14.9c0,0,0.1,0,0.1,0C6.7,14.9,6.7,14.9,6.6,14.9C6.5,14.9,6.5,14.9,6.6,14.9 M9.4,15
		C9.4,15,9.4,15,9.4,15C9.4,15,9.4,15,9.4,15C9.5,15,9.5,14.9,9.4,15C9.5,14.9,9.4,15,9.4,15L9.4,15z M6.9,15C6.9,15,7,15,6.9,15
		C7,15,7,15,6.9,15C6.9,15,6.9,15,6.9,15L6.9,15z M7,15C7,15,7.1,15,7,15C7.1,15,7.1,15,7,15C7,15,7,15,7,15L7,15z M7.1,15
		C7.2,15,7.2,15,7.1,15C7.2,15,7.2,15,7.1,15C7.1,15,7.1,15,7.1,15L7.1,15z M7.3,15C7.3,15,7.3,15,7.3,15C7.4,15,7.3,15,7.3,15
		C7.3,15,7.3,15,7.3,15 M7.4,15C7.5,15.1,7.5,15.1,7.4,15C7.5,15,7.5,15,7.4,15C7.4,15,7.4,15,7.4,15 M7.6,15.1c0,0,0.1,0,0.1,0
		C7.8,15.1,7.7,15.1,7.6,15.1C7.6,15.1,7.6,15.1,7.6,15.1L7.6,15.1z M8.8,15.1C8.8,15.1,8.8,15.1,8.8,15.1
		C8.9,15.1,8.9,15.1,8.8,15.1C8.8,15.1,8.8,15.1,8.8,15.1 M7.9,15.1c0,0,0.1,0,0.2,0C8.1,15.1,8.1,15.1,7.9,15.1
		C7.9,15.1,7.8,15.1,7.9,15.1 M8.6,15.1c0,0,0.1,0,0.1,0C8.7,15.1,8.7,15.1,8.6,15.1C8.6,15.1,8.6,15.1,8.6,15.1 M8.3,15.1
		c0,0,0.1,0,0.1,0S8.4,15.1,8.3,15.1C8.3,15.1,8.2,15.1,8.3,15.1"/>
	<radialGradient id="SVGID_3_" cx="6.2957" cy="7.6402" r="6.6122" gradientUnits="userSpaceOnUse">
		<stop  offset="0" style="stop-color:#FFFFFF"/>
		<stop  offset="1" style="stop-color:#000000"/>
	</radialGradient>
	<path class="st2" d="M7.8,0.2c0,0-0.2,0-0.3,0C6.4,0.3,5.9,0.5,5.7,1l0,0.1l0,2.1c0,2.5,0,3.1,0.1,3.2C5.8,6.5,6,6.6,6.2,6.5
		C6.3,6.5,7,6,8.7,4.6c0.2-0.2,0.5-0.4,0.6-0.5C9.4,4,9.7,3.8,9.8,3.7c0.2-0.1,0.3-0.3,0.4-0.4c0.1-0.1,0.4-0.3,0.9-0.7
		c0.8-0.6,0.9-0.9,0.8-1.1c-0.1-0.2-1-0.7-1.8-0.9c-0.1,0-0.1,0-0.2-0.1C9.9,0.4,9.4,0.3,9,0.2C8.8,0.2,8,0.2,7.8,0.2L7.8,0.2z
		 M4.1,1.4C4,1.4,3.5,1.7,3.1,2C2.2,2.8,1.5,3.9,1.1,5C1.1,5.1,1,5.1,1,5.2c-0.1,0.2-0.3,1.3-0.4,2C0.6,8,0.8,9.5,1,10.1
		c0,0,0,0.1,0.1,0.2c0.2,0.5,0.5,1.2,0.8,1.6c0.7,1,1.8,2,2.2,2.1c0.2,0,0.4-0.1,0.5-0.3c0-0.1,0-12,0-12C4.5,1.4,4.3,1.3,4.1,1.4
		 M5.9,8.7c-0.1,0-0.2,0.1-0.2,0.2c0,0.1-0.1,5.1,0,5.2c0.1,0.6,0.7,0.9,2.4,0.9c1,0,2.3-0.3,3.4-0.9c0.5-0.3,0.5-0.6,0-1
		c-0.2-0.2-1.1-0.9-1.7-1.4c-0.1-0.1-0.3-0.3-0.4-0.3c-0.1-0.1-0.2-0.2-0.4-0.3c-0.1-0.1-0.3-0.3-0.4-0.3c-0.1-0.1-1-0.8-1.4-1.1
		C7.1,9.4,6.5,8.9,6.4,8.9C6.3,8.8,6.1,8.7,5.9,8.7"/>
</g>
</svg>
